<?xml version="1.0" standalone="no"?><!DOCTYPE svg PUBLIC "-//W3C//DTD SVG 1.1//EN" "http://www.w3.org/Graphics/SVG/1.1/DTD/svg11.dtd"><svg t="1762678863293" class="icon" viewBox="0 0 1024 1024" version="1.1" xmlns="http://www.w3.org/2000/svg" p-id="11237" xmlns:xlink="http://www.w3.org/1999/xlink" width="200" height="200"><path d="M329.98 288.72l37.42 21.6M367.38 325.78a15.36 15.36 0 0 1-7.7-2L322.26 302a15.44 15.44 0 1 1 15.44-26.76l37.42 21.6a15.44 15.44 0 0 1-7.74 28.82zM289.44 440h43.2M332.64 455.44h-43.2a15.44 15.44 0 0 1 0-30.9h43.2a15.44 15.44 0 0 1 0 30.9zM329.98 591.28l37.42-21.6M330 606.72a15.44 15.44 0 0 1-7.74-28.72l37.42-21.6a15.44 15.44 0 0 1 15.44 26.76l-37.42 21.6a15.38 15.38 0 0 1-7.7 1.96zM440.72 702.02l21.6-37.42M440.7 717.46a15.46 15.46 0 0 1-13.36-23.18l21.6-37.42a15.44 15.44 0 0 1 26.76 15.44L454 709.74a15.44 15.44 0 0 1-13.3 7.72zM592 742.56v-43.2M592 758a15.44 15.44 0 0 1-15.44-15.44v-43.2a15.44 15.44 0 1 1 30.9 0v43.2A15.44 15.44 0 0 1 592 758zM743.28 702.02l-21.6-37.42M743.3 717.46a15.44 15.44 0 0 1-13.4-7.72l-21.6-37.42a15.44 15.44 0 0 1 26.76-15.44l21.6 37.42a15.46 15.46 0 0 1-13.36 23.18zM854.02 591.28l-37.42-21.6M854 606.72a15.36 15.36 0 0 1-7.7-2l-37.42-21.6a15.44 15.44 0 0 1 15.44-26.76L861.74 578a15.44 15.44 0 0 1-7.74 28.72zM894.56 440h-43.2M894.56 455.44h-43.2a15.44 15.44 0 1 1 0-30.9h43.2a15.44 15.44 0 0 1 0 30.9zM854.02 288.72l-37.42 21.6M816.62 325.78a15.44 15.44 0 0 1-7.74-28.82l37.42-21.6a15.44 15.44 0 1 1 15.44 26.64l-37.42 21.6a15.38 15.38 0 0 1-7.7 2.18zM743.28 177.98l-21.6 37.42M721.66 230.84a15.46 15.46 0 0 1-13.36-23.18L730 170.26a15.44 15.44 0 1 1 26.76 15.44l-21.6 37.42a15.44 15.44 0 0 1-13.5 7.72zM592 137.44v43.2M592 196a15.44 15.44 0 0 1-15.44-15.44V137.44a15.44 15.44 0 0 1 30.9 0v43.2A15.44 15.44 0 0 1 592 196zM440.72 177.98l21.6 37.42M462.34 230.84a15.44 15.44 0 0 1-13.4-7.72l-21.6-37.42A15.44 15.44 0 1 1 454 170.26l21.6 37.42a15.46 15.46 0 0 1-13.36 23.18z" fill="#FCC419" p-id="11238"></path><path d="M592 440m-219.28 0a219.28 219.28 0 1 0 438.56 0 219.28 219.28 0 1 0-438.56 0Z" fill="#FCC419" p-id="11239"></path><path d="M592 440m-174.94 0a174.94 174.94 0 1 0 349.88 0 174.94 174.94 0 1 0-349.88 0Z" fill="#FFD43B" p-id="11240"></path><path d="M629.54 392a12 12 0 0 1-15.3-2.66 21.66 21.66 0 0 0-5.44-4.86 29.58 29.58 0 0 0-32 2.54 18.76 18.76 0 0 0-7.04 14.98q0 12.44 18.5 20l16.96 6.94q20.7 8.38 30.28 20.42a46 46 0 0 1 9.58 29.56q0 23.46-15.64 38.76a53.68 53.68 0 0 1-39.1 15.42q-22.14 0-36.56-13.1a54 54 0 0 1-14.28-22.48 13.16 13.16 0 0 1 9.46-17.26 13.18 13.18 0 0 1 15.4 9.5 25.34 25.34 0 0 0 3.82 8.32q8 11.02 23.12 11.02a26.84 26.84 0 0 0 20-8 27.8 27.8 0 0 0 8-20.38 28.62 28.62 0 0 0-1.38-9.08 23.08 23.08 0 0 0-4.3-7.6 34.38 34.38 0 0 0-7.54-6.5 72.68 72.68 0 0 0-11.02-5.78l-16.4-6.82q-34.9-14.76-34.9-43.16a40.96 40.96 0 0 1 14.64-32q14.64-13 36.44-13a48 48 0 0 1 37.46 16.78 12.12 12.12 0 0 1-2.76 18.44z" fill="#F08C00" p-id="11241"></path><path d="M592 558.9a13.46 13.46 0 0 1-13.46-13.46v-15.3a13.46 13.46 0 1 1 26.94 0v15.3a13.46 13.46 0 0 1-13.48 13.46zM592 373.7a13.46 13.46 0 0 1-13.46-13.46v-15.3a13.46 13.46 0 0 1 26.94 0v15.3a13.46 13.46 0 0 1-13.48 13.46z" fill="#F08C00" p-id="11242"></path><path d="M554 599.74v-47.48a13.26 13.26 0 0 0-12.66-13.24l-40.62-1.84a13.26 13.26 0 0 1-12-9.4 164.74 164.74 0 0 0-12.34-29.8 13.26 13.26 0 0 1 1.88-15.2l27.42-30a13.26 13.26 0 0 0-0.42-18.32l-33.66-33.64a13.26 13.26 0 0 0-18.32-0.42l-30 27.42a13.26 13.26 0 0 1-15.2 1.88 164.74 164.74 0 0 0-29.8-12.34 13.26 13.26 0 0 1-9.4-12l-1.84-40.62a13.26 13.26 0 0 0-13.24-12.66h-47.54a13.26 13.26 0 0 0-13.24 12.66l-1.84 40.62a13.26 13.26 0 0 1-9.4 12 164.74 164.74 0 0 0-29.8 12.34 13.26 13.26 0 0 1-15.2-1.88l-30-27.42a13.26 13.26 0 0 0-18.32 0.42L154.82 434.4a13.26 13.26 0 0 0-0.42 18.32l27.42 30a13.26 13.26 0 0 1 1.88 15.2 164.74 164.74 0 0 0-12.34 29.8 13.26 13.26 0 0 1-12 9.4l-40.62 1.84a13.26 13.26 0 0 0-12.74 13.3v47.46a13.26 13.26 0 0 0 12.66 13.24l40.62 1.84a13.26 13.26 0 0 1 12 9.4 164.74 164.74 0 0 0 12.44 29.8 13.26 13.26 0 0 1-1.88 15.2l-27.42 30a13.26 13.26 0 0 0 0.42 18.32l33.56 33.66a13.26 13.26 0 0 0 18.32 0.42l30-27.42a13.26 13.26 0 0 1 15.2-1.88 164.74 164.74 0 0 0 29.8 12.34 13.26 13.26 0 0 1 9.4 12l1.84 40.62a13.26 13.26 0 0 0 13.24 12.66h47.46a13.26 13.26 0 0 0 13.24-12.66l1.84-40.62a13.26 13.26 0 0 1 9.4-12 164.74 164.74 0 0 0 29.8-12.34 13.26 13.26 0 0 1 15.2 1.88l30 27.42a13.26 13.26 0 0 0 18.32-0.42l33.56-33.56a13.26 13.26 0 0 0 0.42-18.32l-27.42-30a13.26 13.26 0 0 1-1.88-15.2 164.74 164.74 0 0 0 12.34-29.8 13.26 13.26 0 0 1 12-9.4l40.62-1.84a13.26 13.26 0 0 0 12.9-13.32z" fill="#495057" p-id="11243"></path><path d="M330 576m-119.36 0a119.36 119.36 0 1 0 238.72 0 119.36 119.36 0 1 0-238.72 0Z" fill="#ADB5BD" p-id="11244"></path><path d="M330 576m-79.58 0a79.58 79.58 0 1 0 159.16 0 79.58 79.58 0 1 0-159.16 0Z" fill="#495057" p-id="11245"></path><path d="M330 576m-39.78 0a39.78 39.78 0 1 0 79.56 0 39.78 39.78 0 1 0-79.56 0Z" fill="#868E96" p-id="11246"></path><path d="M799.7 708.86l-8.3-32.12a9.26 9.26 0 0 0-10.88-6.74l-27.82 5.86a9.26 9.26 0 0 1-9.82-4.26 115.12 115.12 0 0 0-13.56-18 9.28 9.28 0 0 1-1.38-10.62l13.3-25.12a9.26 9.26 0 0 0-3.48-12.32l-28.58-16.84a9.26 9.26 0 0 0-12.46 2.92l-15.52 23.8a9.28 9.28 0 0 1-10 4 115.12 115.12 0 0 0-22.32-3.14 9.26 9.26 0 0 1-8.48-6.52l-8.4-27.22a9.26 9.26 0 0 0-11.18-6.24l-32.12 8.3a9.26 9.26 0 0 0-6.74 10.88l5.86 27.82a9.26 9.26 0 0 1-4.26 9.82 115.12 115.12 0 0 0-18 13.56 9.28 9.28 0 0 1-10.62 1.38l-25.12-13.3a9.26 9.26 0 0 0-12.32 3.48l-16.84 28.58a9.26 9.26 0 0 0 2.92 12.46l23.8 15.52a9.28 9.28 0 0 1 4 10 115.12 115.12 0 0 0-3.14 22.32 9.26 9.26 0 0 1-6.52 8.48l-27.18 8.4a9.26 9.26 0 0 0-6.24 11.18l8.3 32.12a9.26 9.26 0 0 0 10.88 6.74l27.82-5.86a9.26 9.26 0 0 1 9.82 4.26 115.12 115.12 0 0 0 13.56 18 9.28 9.28 0 0 1 1.38 10.62l-13.3 25.12a9.26 9.26 0 0 0 3.48 12.32l28.58 16.84a9.26 9.26 0 0 0 12.46-2.92l15.52-23.8a9.28 9.28 0 0 1 10-4 115.12 115.12 0 0 0 22.32 3.14 9.26 9.26 0 0 1 8.48 6.52l8.4 27.18a9.26 9.26 0 0 0 11.18 6.24l32.12-8.3a9.26 9.26 0 0 0 6.74-10.88l-5.86-27.82a9.26 9.26 0 0 1 4.26-9.82 115.12 115.12 0 0 0 18-13.56 9.28 9.28 0 0 1 10.62-1.38l25.12 13.3a9.26 9.26 0 0 0 12.32-3.48l16.84-28.58a9.26 9.26 0 0 0-2.92-12.46l-23.8-15.52a9.28 9.28 0 0 1-4-10 115.12 115.12 0 0 0 3.14-22.32 9.26 9.26 0 0 1 6.52-8.48l27.18-8.4a9.26 9.26 0 0 0 6.24-11.14z" fill="#686F77" p-id="11247"></path><path d="M644.025376 731.97947m-80.743513 20.881693a83.4 83.4 0 1 0 161.487026-41.763385 83.4 83.4 0 1 0-161.487026 41.763385Z" fill="#ADB5BD" p-id="11248"></path><path d="M644.025376 731.97947m-53.829009 13.921129a55.6 55.6 0 1 0 107.658018-27.842257 55.6 55.6 0 1 0-107.658018 27.842257Z" fill="#495057" p-id="11249"></path><path d="M644.914395 733.527146m-26.974222 6.725429a27.8 27.8 0 1 0 53.948443-13.450858 27.8 27.8 0 1 0-53.948443 13.450858Z" fill="#CED4DA" p-id="11250"></path><path d="M438.68 177.26l21.66 37.5" fill="#FCC419" p-id="11251"></path></svg>