<?xml version="1.0" standalone="no"?><!DOCTYPE svg PUBLIC "-//W3C//DTD SVG 1.1//EN" "http://www.w3.org/Graphics/SVG/1.1/DTD/svg11.dtd"><svg t="1762678509427" class="icon" viewBox="0 0 1024 1024" version="1.1" xmlns="http://www.w3.org/2000/svg" p-id="2908" xmlns:xlink="http://www.w3.org/1999/xlink" width="200" height="200"><path d="M315.392 0H103.936C52.224 0 10.24 41.984 10.24 93.696v235.008c0 51.712 41.984 93.696 93.696 93.696h211.456c51.712 0 93.696-41.984 93.696-93.696V93.696C409.6 41.984 367.616 0 315.392 0zM315.392 540.16H103.936c-51.712 0-93.696 41.984-93.696 93.696v211.456c0 51.712 41.984 93.696 93.696 93.696h211.456c51.712 0 93.696-41.984 93.696-93.696v-211.456c0.512-51.712-41.472-93.696-93.696-93.696zM855.552 0h-211.456c-51.712 0-93.696 41.984-93.696 93.696v235.008c0 51.712 41.984 93.696 93.696 93.696h211.456c51.712 0 93.696-41.984 93.696-93.696V93.696C949.76 41.984 907.776 0 855.552 0zM954.368 713.728h-140.8v-140.8c0-31.232-25.088-56.32-56.32-56.32s-56.32 25.088-56.32 56.32v140.8h-140.8c-31.232 0-56.32 25.088-56.32 56.32s25.088 56.32 56.32 56.32h140.8V967.68c0 31.232 25.088 56.32 56.32 56.32s56.32-25.088 56.32-56.32v-140.8h140.8c31.232 0 56.32-25.088 56.32-56.32s-25.088-56.32-56.32-56.832z" p-id="2909"></path></svg>