<?xml version="1.0" standalone="no"?><!DOCTYPE svg PUBLIC "-//W3C//DTD SVG 1.1//EN" "http://www.w3.org/Graphics/SVG/1.1/DTD/svg11.dtd"><svg t="1762678462480" class="icon" viewBox="0 0 1024 1024" version="1.1" xmlns="http://www.w3.org/2000/svg" p-id="2000" xmlns:xlink="http://www.w3.org/1999/xlink" width="200" height="200"><path d="M896 380.608v6.784a20.928 20.928 0 0 1-9.408 17.536l-327.232 224a63.552 63.552 0 0 1-35.84 11.072h-23.04c-12.8 0-25.28-3.84-35.84-11.072l-327.232-224A20.928 20.928 0 0 1 128 387.392v-6.784a20.928 20.928 0 0 1 9.408-17.536l327.232-224A63.552 63.552 0 0 1 500.48 128h23.04c12.8 0 25.28 3.84 35.84 11.072l327.232 224a20.928 20.928 0 0 1 9.408 17.536z m-99.392 176.64l-75.52 51.584L768 640l-249.6 170.688h-9.408L256 640l45.248-31.168-73.856-51.584-89.984 61.824A20.928 20.928 0 0 0 128 636.608v6.784a20.928 20.928 0 0 0 9.408 17.536l327.232 224c10.56 7.232 23.04 11.072 35.84 11.072h23.04c12.8 0 25.28-3.84 35.84-11.072l327.232-224a20.928 20.928 0 0 0 9.408-17.536v-6.784a20.928 20.928 0 0 0-9.408-17.536l-89.984-61.824z" p-id="2001"></path></svg>