<?xml version="1.0" standalone="no"?><!DOCTYPE svg PUBLIC "-//W3C//DTD SVG 1.1//EN" "http://www.w3.org/Graphics/SVG/1.1/DTD/svg11.dtd"><svg t="1762678713117" class="icon" viewBox="0 0 1024 1024" version="1.1" xmlns="http://www.w3.org/2000/svg" p-id="4794" xmlns:xlink="http://www.w3.org/1999/xlink" width="200" height="200"><path d="M775.68 729.088L224.768 346.624c-16.384-11.264-38.4-8.704-48.64 6.144S170.496 389.12 186.88 400.384l204.8 142.336c-8.192 1.536-15.36 6.144-19.968 13.824L293.376 679.936H147.968V451.584c0-26.624-14.848-48.128-33.28-48.128s-33.28 21.504-33.28 48.128v350.208c0 26.624 14.848 48.128 33.28 48.128s33.28-21.504 33.28-48.128v-56.32h158.72c6.144 0 12.8-2.048 17.92-5.632 7.168-2.048 13.824-6.144 17.92-13.312l85.504-135.68c4.096-6.656 5.12-13.824 4.096-20.992l306.176 212.992c16.384 11.264 38.4 8.704 48.64-6.144 9.728-14.848 5.12-35.84-11.264-47.616zM977.408 486.4L332.8 59.904c-23.04-15.36-53.76-8.704-68.608 13.824L179.2 198.656C163.84 221.184 169.984 251.904 193.024 267.264l589.312 390.144c23.04 15.36 45.568 1.024 68.608-13.824l140.288-88.064c15.36-23.04 9.216-53.76-13.824-69.12z" fill="#666666" p-id="4795"></path></svg>