<?xml version="1.0" standalone="no"?><!DOCTYPE svg PUBLIC "-//W3C//DTD SVG 1.1//EN" "http://www.w3.org/Graphics/SVG/1.1/DTD/svg11.dtd"><svg t="1762678727738" class="icon" viewBox="0 0 1024 1024" version="1.1" xmlns="http://www.w3.org/2000/svg" p-id="5392" xmlns:xlink="http://www.w3.org/1999/xlink" width="200" height="200"><path d="M342.587392 378.730496c14.732288 0 26.681344-11.705344 26.681344-26.135552 0-81.577984 80.702464-142.89408 158.707712-142.89408 76.265472 0 161.536 68.424704 161.536 143.213568 0 14.420992 11.9296 26.126336 26.682368 26.126336 14.769152 0 26.689536-11.705344 26.718208-26.126336 0-107.788288-113.258496-195.47648-214.908928-195.47648-104.261632 0-212.107264 80.872448-212.107264 195.156992-0.001024 14.429184 11.958272 26.135552 26.69056 26.135552z m346.896384 117.856256c-29.427712 0-53.372928 23.438336-53.372928 52.253696 0 28.824576 23.945216 52.272128 53.372928 52.272128 29.435904 0 53.371904-23.476224 53.371904-52.272128 0-28.81536-23.936-52.253696-53.371904-52.253696z m0 78.380032l-0.019456-26.126336h0.047104l-0.027648 26.126336z m170.290176-158.189568c-13.54752-15.775744-34.110464-24.848384-56.352768-24.848384H255.397888c-22.206464 0-42.748928 9.044992-56.305664 24.829952-13.575168 15.77472-19.216384 37.154816-15.483904 58.448896l57.198592 339.300352c7.390208 41.836544 47.101952 74.582016 90.461184 74.582016h396.244992c43.313152 0 83.01568-32.745472 90.471424-74.760192l57.133056-338.915328c3.815424-21.472256-1.787904-42.852352-15.343616-58.637312z m-37.259264 49.941504l-57.133056 338.905088c-2.932736 16.603136-20.635648 31.204352-37.869568 31.204352H331.267072c-17.232896 0-34.936832-14.58176-37.813248-30.988288L236.2368 466.530304c-1.099776-6.345728 0.188416-12.061696 3.656704-16.086016 3.441664-4.032512 8.969216-6.223872 15.50336-6.223872H803.40992c6.535168 0 12.061696 2.219008 15.532032 6.25152 3.441664 4.015104 4.728832 9.711616 3.572736 16.246784z m-454.815744 29.868032c-29.464576 0-53.400576 23.438336-53.400576 52.253696 0 28.824576 23.936 52.272128 53.400576 52.272128 29.407232 0 53.344256-23.476224 53.344256-52.272128-0.001024-28.81536-23.937024-52.253696-53.344256-52.253696z m-0.028672 78.380032l-0.05632-26.097664c0.027648-0.027648 0.084992-0.027648 0.084992-0.027648l-0.028672 26.125312z" p-id="5393"></path></svg>