<?xml version="1.0" standalone="no"?><!DOCTYPE svg PUBLIC "-//W3C//DTD SVG 1.1//EN" "http://www.w3.org/Graphics/SVG/1.1/DTD/svg11.dtd"><svg t="1762678701502" class="icon" viewBox="0 0 1024 1024" version="1.1" xmlns="http://www.w3.org/2000/svg" p-id="4499" xmlns:xlink="http://www.w3.org/1999/xlink" width="200" height="200"><path d="M778.24 698.88H651.264a60.8256 60.8256 0 0 1-60.7232-60.7232v-65.9456a60.8256 60.8256 0 0 1 60.7232-60.7232H716.8a60.8256 60.8256 0 0 1 61.44 60.7232zM922.5216 698.88H795.9552V572.2112a60.8256 60.8256 0 0 1 60.7232-60.7232h65.8432A60.8256 60.8256 0 0 1 983.04 572.2112v65.8432a60.8256 60.8256 0 0 1-60.5184 60.8256zM922.5216 905.3184h-65.8432a60.8256 60.8256 0 0 1-60.7232-60.7232V717.9264h126.5664A60.8256 60.8256 0 0 1 983.04 778.24v65.8432a60.8256 60.8256 0 0 1-60.5184 61.2352zM716.8 905.3184h-65.536a60.8256 60.8256 0 0 1-60.7232-60.7232V778.24a60.8256 60.8256 0 0 1 60.7232-60.7232H778.24v127.0784a60.8256 60.8256 0 0 1-61.44 60.7232z" fill="#417EF5" p-id="4500"></path><path d="M514.4576 81.92a431.2064 431.2064 0 0 1 430.08 412.5696h39.6288a471.04 471.04 0 1 0-256 436.9408h-112.64A430.7968 430.7968 0 1 1 514.4576 81.92z" fill="#417EF5" p-id="4501"></path><path d="M514.4576 373.8624a138.752 138.752 0 1 0 0 277.504 137.0112 137.0112 0 0 0 36.864-5.12v-43.3152a96.3584 96.3584 0 0 1-36.864 7.4752 97.792 97.792 0 1 1 95.4368-118.0672h41.6768a138.8544 138.8544 0 0 0-137.1136-118.4768z" fill="#417EF5" p-id="4502"></path><path d="M514.4576 206.6432A305.9712 305.9712 0 1 0 552.96 815.9232v-40.96A264.9088 264.9088 0 1 1 778.24 493.568h40.96a306.2784 306.2784 0 0 0-304.7424-286.9248z" fill="#417EF5" p-id="4503"></path></svg>