<?xml version="1.0" standalone="no"?><!DOCTYPE svg PUBLIC "-//W3C//DTD SVG 1.1//EN" "http://www.w3.org/Graphics/SVG/1.1/DTD/svg11.dtd"><svg t="1762678705482" class="icon" viewBox="0 0 1024 1024" version="1.1" xmlns="http://www.w3.org/2000/svg" p-id="4648" xmlns:xlink="http://www.w3.org/1999/xlink" width="200" height="200"><path d="M993.460706 457.456941v-34.93647c1.837176-16.022588-10.661647-26.774588-24.937412-26.774589h-16.052706V56.892235A27.437176 27.437176 0 0 0 925.696 30.117647H185.524706a27.407059 27.407059 0 0 0-26.714353 26.774588v73.155765H121.283765a27.467294 27.467294 0 0 0-26.714353 26.774588V283.407059H57.103059a27.467294 27.467294 0 0 0-26.714353 26.774588v148.239059c-0.361412 2.108235-0.481882 4.186353-0.481882 6.354823v479.834353c0 2.138353 0.120471 4.336941 0.421647 6.445177v15.510588c0.301176 14.607059 12.107294 26.383059 26.714353 26.744471h14.185411c2.590118 0.421647 5.240471 0.632471 7.830589 0.602353h865.882352c2.590118 0.060235 5.240471-0.180706 7.830589-0.602353h14.004706a27.407059 27.407059 0 0 0 26.714353-26.744471v-14.667294c0.421647-2.409412 0.602353-4.818824 0.602352-7.258353V464.775529a45.869176 45.869176 0 0 0-0.63247-7.318588z m-349.816471 225.219765v164.713412a28.220235 28.220235 0 0 1-28.340706 28.340706h-206.667294a28.190118 28.190118 0 0 1-28.28047-28.340706v-164.713412c0-15.751529 12.589176-28.370824 28.28047-28.370824h206.667294c15.751529 0 28.882824 12.619294 28.340706 28.370824z m-131.674353-120.741647c-26.714353 0-48.248471 21.564235-48.24847 47.796706v16.745411h-34.635294a74.149647 74.149647 0 0 1-1.596236-15.149176 84.931765 84.931765 0 0 1 85.052236-84.992c46.682353 0 84.389647 38.249412 84.389647 84.992 0 4.698353-0.481882 9.908706-1.536 15.149176h-35.177412v-16.745411c0.030118-26.232471-21.955765-47.796706-48.248471-47.796706z m283.557647-166.159059H437.007059l-112.308706-103.454118a22.919529 22.919529 0 0 0-17.829647-7.107764H149.865412V183.536941h645.662117v212.239059z m101.647059 0h-49.935059V156.822588a27.407059 27.407059 0 0 0-26.774588-26.774588H212.269176V83.636706h684.905412v312.139294zM511.427765 703.608471a35.087059 35.087059 0 1 0-17.28753 65.596235v41.472c0 8.914824 7.348706 16.233412 16.293647 16.233412h3.132236a16.323765 16.323765 0 0 0 16.293647-16.233412V769.204706c10.480941-6.294588 17.799529-17.829647 16.745411-30.418824a35.207529 35.207529 0 0 0-35.177411-35.177411z" p-id="4649"></path></svg>