<?xml version="1.0" standalone="no"?><!DOCTYPE svg PUBLIC "-//W3C//DTD SVG 1.1//EN" "http://www.w3.org/Graphics/SVG/1.1/DTD/svg11.dtd"><svg t="1762678419761" class="icon" viewBox="0 0 1024 1024" version="1.1" xmlns="http://www.w3.org/2000/svg" p-id="1398" xmlns:xlink="http://www.w3.org/1999/xlink" width="200" height="200"><path d="M704.868671 2.738149a22.353018 22.353018 0 0 0-13.15335 18.117843c-0.972427 8.636684 0.358262 12.769497 6.154437 19.192631 5.975306 6.61506 11.541169 8.278422 31.539891 9.391595 60.06014 3.365108 118.482509 42.42851 146.107102 97.703287 9.417184 18.872754 16.032244 43.746404 17.52927 66.035445 1.305099 19.435738 1.919263 21.866804 6.883757 27.509438 8.316807 9.48116 18.923934 11.541169 29.786963 5.78338 12.283284-6.487109 14.931867-17.670016 11.298062-47.648906-10.376816-85.535159-70.808013-159.465174-152.517441-186.603554C755.933865 1.40746 717.407857-2.96846 704.868671 2.738149m-2.930075 84.294035c-1.676156 0.383853-5.629838 2.89169-8.764635 5.578658-17.759581 15.200564-6.039281 42.172608 18.386541 42.300559 33.254432 0.153541 67.30216 21.30382 82.950551 51.513022 7.114069 13.729129 9.916193 23.171903 11.054956 37.246499 1.228328 15.136588 2.776534 19.358967 9.250848 25.219117 9.634701 8.700659 21.969165 8.700659 31.59107 0 7.510716-6.781396 9.212463-12.577571 8.124881-27.714159-1.53541-21.534132-8.905381-44.795601-20.203443-63.796305-24.054764-40.445271-69.221423-67.865143-115.821131-70.321801-7.421151-0.383853-14.880687-0.396648-16.569638-0.02559m10.683898 92.892334c-7.088478 1.996034-8.943766 3.122001-16.761564 10.21048-19.512508 17.657221-13.997826 51.20594 10.581537 64.423265 8.227241 4.414305 27.650184 4.414305 35.954195-0.012795 7.894569-4.196789 16.889515-14.292113 19.998722-22.429788 3.096411-8.112085 2.482247-23.619731-1.215533-30.772185-9.097307-17.593245-29.774168-26.703347-48.557357-21.418977m-286.110948 28.328324c-14.432859 7.907364-332.032517 191.491277-335.423216 193.883959-2.098394 1.48423-5.169215 5.476297-6.819781 8.87979-2.99405 6.180027-2.99405 6.397544-2.96846 202.76375 0.038385 188.036604 0.153541 196.814034 2.686968 202.315921 1.45864 3.147591 4.183994 7.139659 6.064871 8.8542 1.880878 1.714542 79.227181 46.85561 171.889204 100.313485 177.659788 102.51424 174.473811 100.850879 185.349635 97.050738 7.561897-2.635788 336.357256-192.770786 341.500882-197.492173 9.391594-8.598299 8.80302 5.540273 8.80302-211.144532 0-190.966679-0.089566-197.671305-2.712558-202.81493-1.497025-2.930075-3.915297-6.384749-5.386732-7.664257-1.45864-1.292304-78.561836-46.15188-171.339015-99.699321-165.670791-95.617688-168.818383-97.35782-177.28873-97.869623-6.832577-0.409443-9.788242 0.127951-14.356088 2.622993m68.556078 86.648331c25.846076 14.893482 47.009151 27.496643 47.009151 28.034037 0 1.497025-273.16232 158.735854-274.851272 158.211255-2.571813-0.806091-99.021181-56.503106-100.786903-58.204852-1.253919-1.215533 32.640268-21.406181 135.666311-80.826567l137.329673-79.201591 4.311944 2.469452 51.321096 29.518266m161.269281 93.045876c43.20901 24.92483 57.424352 33.779031 56.132048 34.956178-2.661378 2.418272-269.195843 155.818574-272.049147 156.560689-2.443862 0.639754-116.691197-64.231339-116.691197-66.265757 0.012795-1.023607 271.319827-158.288026 273.456607-158.505542 0.70373-0.063975 27.317512 14.893482 59.151689 33.254432M225.539108 519.88999l15.801933 9.148487 0.716525 48.301455 0.716525 48.288659 4.337535 5.361142c6.691831 8.252831 12.705522 10.952595 23.120723 10.351226 10.415201-0.588574 17.516475-5.118035 22.071525-14.049006 2.597403-5.066855 2.8661-8.483143 2.8661-35.954196 0-28.328323 0.166336-30.298767 2.507837-29.390315 1.381869 0.524599 27.8677 15.610007 58.857402 33.510334l56.349565 32.550702v160.4376c0 88.234922-0.435033 160.4376-0.972427 160.437601-0.524599 0-62.862264-35.698294-138.506821-79.316747L135.871136 790.250185l-0.02559-161.064559-0.02559-161.077355 36.965007 21.30382c20.331394 11.7203 44.079076 25.436634 52.754145 30.477899m517.510104 109.244455v161.154126l-136.728304 78.817738a131735.532479 131735.532479 0 0 1-137.815886 79.380722c-0.588574 0.307082-1.049197-71.985161-1.010812-160.667912l0.076771-161.218101 137.380853-79.227181a53358.713058 53358.713058 0 0 1 137.739115-79.316746c0.191926-0.038385 0.358262 72.445785 0.358263 161.077354" p-id="1399"></path></svg>