<?xml version="1.0" standalone="no"?><!DOCTYPE svg PUBLIC "-//W3C//DTD SVG 1.1//EN" "http://www.w3.org/Graphics/SVG/1.1/DTD/svg11.dtd"><svg t="1762678743526" class="icon" viewBox="0 0 1024 1024" version="1.1" xmlns="http://www.w3.org/2000/svg" p-id="6129" xmlns:xlink="http://www.w3.org/1999/xlink" width="200" height="200"><path d="M544.382976 346.263552c25.942016-20.75648 52.625408-32.620544 77.828096-37.062656 28.903424-5.18144 56.328192-0.73728 80.048128 11.12064 22.966272 11.859968 42.246144 31.127552 55.590912 54.84544 14.077952 25.944064 20.744192 57.810944 17.782784 91.897856-4.442112 63.004672-35.579904 119.334912-77.08672 169.736192-40.76544 49.664-91.897856 93.380608-140.82048 131.936256-7.405568 5.922816-18.526208 5.922816-25.202688-0.741376-16.304128-14.096384-17.784832-14.833664-20.74624-17.057792-95.612928-81.528832-196.407296-168.241152-196.407296-285.353984 0-42.985472 12.601344-79.3088 34.08896-106.73152 11.859968-14.823424 26.681344-25.929728 42.985472-34.08896 16.30208-8.159232 34.840576-12.601344 54.847488-12.601344C477.67552 312.162304 511.035392 322.543616 544.382976 346.263552L544.382976 346.263552zM628.873216 347.744256c-22.228992 3.704832-45.950976 16.304128-70.41024 38.531072l0 0c-6.664192 5.935104-17.784832 6.678528-25.202688 0.753664-30.386176-25.202688-60.030976-35.581952-85.972992-35.581952-14.082048 0-26.683392 2.961408-37.801984 8.157184-11.106304 5.924864-21.487616 13.328384-29.646848 23.707648-15.562752 20.017152-25.20064 48.922624-25.20064 82.270208 0 99.311616 94.130176 179.36384 183.078912 255.709184l8.144896 6.664192c42.98752-34.82624 87.465984-73.385984 122.29632-115.617792 37.062656-45.21984 64.485376-94.130176 68.929536-148.236288 1.480704-26.683392-2.961408-50.405376-14.084096-70.412288-8.89856-17.045504-22.237184-30.384128-38.541312-38.54336C668.157952 347.004928 649.631744 344.027136 628.873216 347.744256L628.873216 347.744256z" p-id="6130"></path><path d="M229.380096 100.352 827.51488 100.352c31.125504 0 62.285824 15.847424 83.048448 36.605952l0 0 0 0c20.013056 20.017152 35.61472 52.170752 35.61472 82.55488l0 598.122496c0 31.127552-15.599616 63.137792-35.61472 83.89632-20.762624 20.021248-51.922944 36.4544-83.048448 36.4544L229.380096 937.986048c-31.125504 0-63.373312-16.431104-83.390464-36.4544l0 0C125.229056 880.771072 108.544 848.76288 108.544 817.63328L108.544 219.512832c0-31.125504 16.685056-62.53568 37.445632-82.55488C166.008832 116.199424 198.254592 100.352 229.380096 100.352L229.380096 100.352zM827.51488 153.6 229.380096 153.6c-20.006912 0-35.639296 4.429824-48.979968 17.7664C167.057408 184.70912 161.792 199.50592 161.792 219.512832l0 598.122496c0 20.760576 5.265408 35.414016 18.608128 48.746496 13.340672 13.35296 28.973056 18.356224 48.979968 18.356224L827.51488 884.738048c20.011008 0 34.553856-5.003264 47.894528-18.356224 13.340672-13.33248 17.52064-28.727296 17.52064-48.746496L892.930048 219.512832c0-20.006912-4.179968-34.801664-17.52064-48.144384l0 0C862.068736 158.029824 848.26112 153.6 827.51488 153.6L827.51488 153.6z" p-id="6131"></path></svg>