<?xml version="1.0" standalone="no"?><!DOCTYPE svg PUBLIC "-//W3C//DTD SVG 1.1//EN" "http://www.w3.org/Graphics/SVG/1.1/DTD/svg11.dtd"><svg t="1762678516675" class="icon" viewBox="0 0 1024 1024" version="1.1" xmlns="http://www.w3.org/2000/svg" p-id="3060" xmlns:xlink="http://www.w3.org/1999/xlink" width="200" height="200"><path d="M694.857143 36.571429a73.142857 73.142857 0 0 1 73.142857 73.142857v73.142857h36.571429a73.142857 73.142857 0 0 1 72.96 67.657143L877.714286 256v658.285714a73.142857 73.142857 0 0 1-73.142857 73.142857H219.428571a73.142857 73.142857 0 0 1-73.142857-73.142857V109.714286a73.142857 73.142857 0 0 1 73.142857-73.142857h475.428572z m109.714286 182.857142H182.857143v694.857143l0.256 4.278857A36.571429 36.571429 0 0 0 219.428571 950.857143h585.142858l4.278857-0.256A36.571429 36.571429 0 0 0 841.142857 914.285714V256l-0.256-4.278857A36.571429 36.571429 0 0 0 804.571429 219.428571z m-115.2 402.285715a36.571429 36.571429 0 0 1 28.672 13.824l31.670857 39.936a36.571429 36.571429 0 0 1-0.329143 45.860571l-99.328 121.673143a36.571429 36.571429 0 0 1-56.685714 0l-99.328-121.673143a36.571429 36.571429 0 0 1-0.329143-45.860571l31.670857-39.936A36.571429 36.571429 0 0 1 554.057143 621.714286h135.314286z m0 36.571428h-135.314286l-31.670857 39.899429L621.714286 819.931429l99.328-121.709715L689.371429 658.285714z m-232.228572-182.857143a18.285714 18.285714 0 1 1 0 36.571429h-182.857143a18.285714 18.285714 0 1 1 0-36.571429h182.857143z m146.285714-146.285714a18.285714 18.285714 0 1 1 0 36.571429h-329.142857a18.285714 18.285714 0 0 1 0-36.571429h329.142857zM694.857143 73.142857H219.428571a36.571429 36.571429 0 0 0-36.315428 32.292572L182.857143 109.714286v73.142857h548.571428V109.714286a36.571429 36.571429 0 0 0-32.292571-36.315429L694.857143 73.142857z" fill="#4B4645" p-id="3061"></path></svg>