<?xml version="1.0" standalone="no"?><!DOCTYPE svg PUBLIC "-//W3C//DTD SVG 1.1//EN" "http://www.w3.org/Graphics/SVG/1.1/DTD/svg11.dtd"><svg t="1762678734282" class="icon" viewBox="0 0 1024 1024" version="1.1" xmlns="http://www.w3.org/2000/svg" p-id="5689" xmlns:xlink="http://www.w3.org/1999/xlink" width="200" height="200"><path d="M905.783762 1024H118.216238a85.874059 85.874059 0 0 1-85.772674-85.772673v-851.643565A85.874059 85.874059 0 0 1 118.216238 0h787.567524a85.874059 85.874059 0 0 1 85.772674 85.772673v851.643565a85.874059 85.874059 0 0 1-85.772674 86.583762zM118.216238 40.554455a45.319604 45.319604 0 0 0-45.218218 45.725149v851.643564A45.319604 45.319604 0 0 0 118.216238 983.445545h787.567524a45.319604 45.319604 0 0 0 45.218218-45.218218v-851.643565A45.319604 45.319604 0 0 0 905.783762 40.554455z" fill="#4D6189" p-id="5690"></path><path d="M371.78297 418.116436H231.565941a64.07604 64.07604 0 0 1-63.974654-63.974654V213.924752a64.07604 64.07604 0 0 1 63.974654-63.974653h140.217029A64.07604 64.07604 0 0 1 436.061782 213.924752v140.21703a64.07604 64.07604 0 0 1-64.278812 63.974654zM231.565941 190.504554a23.420198 23.420198 0 0 0-23.420198 23.420198v140.21703a23.420198 23.420198 0 0 0 23.420198 23.420198h140.217029A23.420198 23.420198 0 0 0 395.507327 354.141782V213.924752a23.420198 23.420198 0 0 0-23.420198-23.420198z" fill="#F5A518" p-id="5691"></path><path d="M381.921584 859.247525H241.704554a64.07604 64.07604 0 0 1-63.974653-63.974654V655.055842a64.07604 64.07604 0 0 1 63.974653-63.974654h140.21703A64.07604 64.07604 0 0 1 446.200396 655.055842v140.217029a64.07604 64.07604 0 0 1-64.278812 63.974654zM241.704554 631.635644a23.420198 23.420198 0 0 0-23.420198 23.420198v140.217029a23.420198 23.420198 0 0 0 23.420198 23.420198h140.21703A23.420198 23.420198 0 0 0 405.645941 795.272871V655.055842a23.420198 23.420198 0 0 0-23.420198-23.420198zM853.671287 250.829307h-351.809901a20.277228 20.277228 0 0 1 0-40.554456h351.809901a20.277228 20.277228 0 0 1 0 40.554456zM853.671287 359.008317h-351.809901a20.277228 20.277228 0 0 1 0-40.554456h351.809901a20.277228 20.277228 0 1 1 0 40.554456zM853.671287 691.453465h-351.809901a20.277228 20.277228 0 0 1 0-40.554455h351.809901a20.277228 20.277228 0 0 1 0 40.554455zM853.671287 799.531089h-351.809901a20.277228 20.277228 0 0 1 0-40.554455h351.809901a20.277228 20.277228 0 0 1 0 40.554455z" fill="#4D6189" p-id="5692"></path></svg>