<?xml version="1.0" standalone="no"?><!DOCTYPE svg PUBLIC "-//W3C//DTD SVG 1.1//EN" "http://www.w3.org/Graphics/SVG/1.1/DTD/svg11.dtd"><svg t="1762678457945" class="icon" viewBox="0 0 1024 1024" version="1.1" xmlns="http://www.w3.org/2000/svg" p-id="1849" xmlns:xlink="http://www.w3.org/1999/xlink" width="200" height="200"><path d="M667.477333 520.817778A141.596444 141.596444 0 0 1 526.051556 379.448889a141.653333 141.653333 0 0 1 141.425777-141.425778 141.596444 141.596444 0 0 1 141.368889 141.425778 141.596444 141.596444 0 0 1-141.368889 141.368889z m0-196.437334a55.182222 55.182222 0 0 0-55.068444 55.068445 55.239111 55.239111 0 0 0 55.068444 55.125333 55.125333 55.125333 0 0 0 55.011556-55.125333 55.125333 55.125333 0 0 0-55.011556-55.125333z" fill="#38A0FB" p-id="1850"></path><path d="M995.384889 206.506667v666.851555a150.641778 150.641778 0 0 1-150.414222 150.414222h-665.6a150.186667 150.186667 0 0 1-106.439111-43.975111 150.357333 150.357333 0 0 1-44.032-106.439111v-123.505778a80.440889 80.440889 0 0 1 28.728888-62.065777l57.685334-48.64 207.985778-174.08a43.747556 43.747556 0 0 1 56.888888 1.251555l261.688889 247.068445 112.64-92.16a32.312889 32.312889 0 0 1 9.728-6.656 21.617778 21.617778 0 0 1 12.629334-2.958223 42.894222 42.894222 0 0 1 38.343111 15.36 43.576889 43.576889 0 0 1-6.371556 60.814223l-31.971555 26.225777-107.52 88.291556a39.822222 39.822222 0 0 1-21.162667 9.614222 21.617778 21.617778 0 0 1-6.371556 0.625778 2.332444 2.332444 0 0 1-1.934222 0.625778 41.528889 41.528889 0 0 1-29.468444-11.377778l-261.12-245.76-215.04 180.451556a53.134222 53.134222 0 0 0-19.171556 40.96v96.028444a64.170667 64.170667 0 0 0 64 64h667.249778a63.943111 63.943111 0 0 0 63.374222-63.374222V207.246222a64.170667 64.170667 0 0 0-64-64h-665.6a63.715556 63.715556 0 0 0-45.511111 18.659556 63.772444 63.772444 0 0 0-18.716444 45.511111v293.717333a43.918222 43.918222 0 0 1-43.576889 42.894222 42.894222 42.894222 0 0 1-42.780445-42.894222V207.416889a150.641778 150.641778 0 0 1 150.414223-150.414222h666.168888a149.845333 149.845333 0 0 1 149.276445 149.504z" fill="#434951" p-id="1851"></path></svg>