<?xml version="1.0" standalone="no"?><!DOCTYPE svg PUBLIC "-//W3C//DTD SVG 1.1//EN" "http://www.w3.org/Graphics/SVG/1.1/DTD/svg11.dtd"><svg t="1762678751538" class="icon" viewBox="0 0 1024 1024" version="1.1" xmlns="http://www.w3.org/2000/svg" p-id="6585" xmlns:xlink="http://www.w3.org/1999/xlink" width="200" height="200"><path d="M591.778909 884.247273h-162.443636c-19.130182 0-34.816 15.732364-34.816 34.955636 0 19.246545 15.685818 34.978909 34.839272 34.978909h162.420364a34.978909 34.978909 0 0 0 0-69.934545z m324.840727 0h-162.443636a34.978909 34.978909 0 0 0 0 69.934545h162.443636a34.978909 34.978909 0 0 0 0-69.934545z m-649.704727 0h-162.443636a34.978909 34.978909 0 0 0 0 69.934545h162.443636c19.130182 0 34.816-15.732364 34.816-34.978909 0-19.223273-15.685818-34.955636-34.816-34.955636z m700.183273-139.845818H59.810909c-18.501818 0-33.629091 15.197091-33.629091 33.768727v2.373818c0 18.571636 15.127273 33.768727 33.629091 33.768727h907.287273c18.501818 0 33.629091-15.197091 33.629091-33.745454v-2.397091c0-18.571636-15.127273-33.745455-33.629091-33.745455zM372.759273 232.727273v396.218182c-0.232727 24.343273 19.013818 44.288 43.008 44.520727h538.391272a46.545455 46.545455 0 0 0 46.545455-46.545455v-80.128a34.792727 34.792727 0 0 0-69.585455 0v56.738909H442.368V258.257455h488.727273v149.108363a34.816 34.816 0 0 0 69.632 0v-174.498909c0.232727-24.343273-18.990545-44.288-42.984728-44.520727H415.860364c-23.970909 0.139636-43.287273 20.037818-43.101091 44.381091z m-81.780364 38.306909c19.269818 0 34.909091-15.895273 34.909091-35.514182V140.846545h512c19.269818 0 34.909091-15.895273 34.909091-35.514181S857.134545 69.818182 837.888 69.818182h-523.636364c-32.139636 0-58.181818 26.530909-58.181818 59.182545v106.519273c0 19.618909 15.592727 35.514182 34.909091 35.514182z m-42.635636 156.392727v176.104727H92.858182v-176.128h155.461818zM63.069091 673.442909h214.993454a40.727273 40.727273 0 0 0 39.84291-41.588364V399.034182c0.325818-22.644364-17.524364-41.262545-39.84291-41.565091H63.115636c-22.295273 0.279273-40.122182 18.897455-39.842909 41.541818v232.866909c-0.302545 22.644364 17.524364 41.262545 39.796364 41.588364z" fill="#231814" p-id="6586"></path></svg>