<?xml version="1.0" standalone="no"?><!DOCTYPE svg PUBLIC "-//W3C//DTD SVG 1.1//EN" "http://www.w3.org/Graphics/SVG/1.1/DTD/svg11.dtd"><svg t="1762678724450" class="icon" viewBox="0 0 1024 1024" version="1.1" xmlns="http://www.w3.org/2000/svg" p-id="5242" xmlns:xlink="http://www.w3.org/1999/xlink" width="200" height="200"><path d="M0 789.333333c0-129.621333 105.066667-234.666667 234.666667-234.666666h170.645333A64 64 0 0 1 469.333333 618.688V789.333333c0 129.621333-105.066667 234.666667-234.666666 234.666667-129.621333 0-234.666667-105.066667-234.666667-234.666667z m85.333333 0c0 82.474667 67.029333 149.333333 149.333334 149.333334 82.474667 0 149.333333-67.029333 149.333333-149.333334v-149.333333h-149.333333c-82.474667 0-149.333333 67.029333-149.333334 149.333333z m938.666667-554.666666c0 129.621333-105.066667 234.666667-234.666667 234.666666h-170.645333A64 64 0 0 1 554.666667 405.312V234.666667c0-129.621333 105.066667-234.666667 234.666666-234.666667 129.621333 0 234.666667 105.066667 234.666667 234.666667z m-85.333333 0c0-82.474667-67.029333-149.333333-149.333334-149.333334-82.474667 0-149.333333 67.029333-149.333333 149.333334v149.333333h149.333333c82.474667 0 149.333333-67.029333 149.333334-149.333333zM0 234.666667C0 105.066667 105.045333 0 234.666667 0c129.6 0 234.666667 105.045333 234.666666 234.666667v170.645333A64 64 0 0 1 405.312 469.333333H234.666667C105.066667 469.333333 0 364.288 0 234.666667z m85.333333 0c0 82.304 66.858667 149.333333 149.333334 149.333333h149.333333v-149.333333c0-82.304-66.858667-149.333333-149.333333-149.333334-82.304 0-149.333333 66.858667-149.333334 149.333334z m920.704 518.613333c9.898667 0 18.026667 8.106667 17.962667 18.048v36.096c0 9.962667-8.128 18.069333-18.026667 18.069333H984.32c-9.898667 0-20.437333 7.744-23.424 17.216l-12.416 30.229334c-4.672 8.768-2.773333 21.717333 4.224 28.693333l15.402667 15.36c7.04 7.04 7.04 18.517333 0 25.557333l-25.6 25.536a18.090667 18.090667 0 0 1-25.514667 0l-15.296-15.36c-6.997333-7.04-19.946667-8.917333-28.693333-4.202666l-30.250667 12.437333c-9.450667 2.944-17.237333 13.461333-17.237333 23.402667v21.589333a18.133333 18.133333 0 0 1-18.069334 18.048h-36.074666a18.133333 18.133333 0 0 1-18.090667-18.048v-21.589333c0-9.941333-7.722667-20.458667-17.237333-23.402667l-30.293334-12.437333c-8.746667-4.693333-21.632-2.816-28.586666 4.181333l-15.424 15.381333a18.069333 18.069333 0 0 1-25.493334 0l-25.557333-25.536a18.133333 18.133333 0 0 1 0-25.557333l15.36-15.36c7.04-6.976 8.917333-19.925333 4.266667-28.693333l-12.501334-30.229334c-2.944-9.472-13.461333-17.216-23.381333-17.28h-21.674667a18.090667 18.090667 0 0 1-18.069333-18.026666v-36.074667c0-9.962667 8.106667-18.069333 18.090667-18.069333h21.653333c9.92 0 20.48-7.744 23.402667-17.237334l12.458666-30.250666c4.693333-8.768 2.773333-21.653333-4.266666-28.714667l-15.317334-15.36a18.048 18.048 0 0 1 0-25.536l25.536-25.493333a18.026667 18.026667 0 0 1 25.493334 0l15.402666 15.36c7.04 6.997333 19.904 8.917333 28.672 4.224l30.229334-12.394667c9.514667-2.965333 17.237333-13.482667 17.237333-23.466667v-21.653333a18.133333 18.133333 0 0 1 18.090667-18.069333h36.074666a18.133333 18.133333 0 0 1 18.069334 18.069333v21.674667c0 9.941333 7.786667 20.48 17.237333 23.402666l30.186667 12.437334c8.768 4.693333 21.696 2.773333 28.693333-4.224l15.402667-15.36a18.048 18.048 0 0 1 25.536 0l25.557333 25.536c7.04 6.997333 7.04 18.474667 0 25.536l-15.36 15.36c-7.04 7.04-8.917333 19.946667-4.245333 28.672l12.416 30.250666c2.986667 9.493333 13.482667 17.237333 23.402666 17.237334h21.717334z m-136.064 34.645333a82.048 82.048 0 1 0-164.117333 0 82.048 82.048 0 0 0 82.069333 82.026667 82.026667 82.026667 0 0 0 82.048-82.026667z" fill="#95969A" p-id="5243"></path></svg>