<?xml version="1.0" standalone="no"?><!DOCTYPE svg PUBLIC "-//W3C//DTD SVG 1.1//EN" "http://www.w3.org/Graphics/SVG/1.1/DTD/svg11.dtd"><svg t="1762678495374" class="icon" viewBox="0 0 1024 1024" version="1.1" xmlns="http://www.w3.org/2000/svg" p-id="2602" xmlns:xlink="http://www.w3.org/1999/xlink" width="200" height="200"><path d="M96 128a96 96 0 0 1 96-96h443.232a96 96 0 0 1 82.944 47.616L914.88 416.96A96 96 0 0 1 928 465.312V896a96 96 0 0 1-96 96H192a96 96 0 0 1-96-96V128z m96-32a32 32 0 0 0-32 32v768a32 32 0 0 0 32 32h640a32 32 0 0 0 32-32V465.28a32 32 0 0 0-4.352-16.096l-196.768-337.28A32 32 0 0 0 635.232 96H192z" fill="#303133" p-id="2603"></path><path d="M288 32a32 32 0 0 1 32 32v192a32 32 0 0 1-64 0V64a32 32 0 0 1 32-32zM416 32a32 32 0 0 1 32 32v192a32 32 0 1 1-64 0V64a32 32 0 0 1 32-32zM544 32a32 32 0 0 1 32 32v192a32 32 0 1 1-64 0V64a32 32 0 0 1 32-32zM224 544a64 64 0 0 1 64-64h448a64 64 0 0 1 64 64v256a64 64 0 0 1-64 64H288a64 64 0 0 1-64-64v-256z m512 0H288v256h448v-256z" fill="#303133" p-id="2604"></path></svg>