<?xml version="1.0" standalone="no"?><!DOCTYPE svg PUBLIC "-//W3C//DTD SVG 1.1//EN" "http://www.w3.org/Graphics/SVG/1.1/DTD/svg11.dtd"><svg t="1762678504253" class="icon" viewBox="0 0 1081 1024" version="1.1" xmlns="http://www.w3.org/2000/svg" p-id="2755" xmlns:xlink="http://www.w3.org/1999/xlink" width="211.1328125" height="200"><path d="M1081.652055 349.373614h-75.715644a26.500475 26.500475 0 0 1-19.469737-8.112391l-151.431288-151.431287 38.398648-38.398648 143.318897 143.859723H1081.652055z" fill="#0F3567" p-id="2756"></path><path d="M802.585824 222.820323a102.756945 102.756945 0 1 1 102.756946-102.756945 102.756945 102.756945 0 0 1-102.756946 102.756945z m0-151.431287a48.674342 48.674342 0 1 0 48.674343 48.674342 48.674342 48.674342 0 0 0-48.674343-48.674342zM550.02007 652.777015a103.297771 103.297771 0 1 1 102.756945-102.756945 103.297771 103.297771 0 0 1-102.756945 102.756945z m0-151.972114a49.215168 49.215168 0 1 0 48.674342 49.215169 49.215168 49.215168 0 0 0-48.674342-49.215169zM499.182423 222.820323a102.756945 102.756945 0 1 1 102.756945-102.756945 102.756945 102.756945 0 0 1-102.756945 102.756945z m0-151.431287a48.674342 48.674342 0 1 0 48.674343 48.674342 48.674342 48.674342 0 0 0-48.674343-48.674342zM903.720292 627.358192a102.756945 102.756945 0 1 1 102.756945-102.756946 102.756945 102.756945 0 0 1-102.756945 102.756946z m0-151.431288a48.674342 48.674342 0 1 0 48.674342 48.674342 48.674342 48.674342 0 0 0-48.674342-48.674342zM777.167001 879.923946a102.756945 102.756945 0 1 1 102.756945-102.756945 102.756945 102.756945 0 0 1-102.756945 102.756945z m0-151.431287a48.674342 48.674342 0 1 0 48.674343 48.674342 48.674342 48.674342 0 0 0-48.674343-48.674342zM347.751136 450.508081a102.756945 102.756945 0 1 1 102.756945-102.756945 102.756945 102.756945 0 0 1-102.756945 102.756945z m0-151.431288a48.674342 48.674342 0 0 0 0 97.348685 48.674342 48.674342 0 1 0 0-97.348685z" fill="#0F3567" p-id="2757"></path><path d="M530.658498 190.208514l38.2364-38.290483 303.241154 303.295236-38.236401 38.2364zM808.534911 846.933559l38.2364-38.2364 177.066441 177.066441-38.2364 38.2364zM0 38.2364L38.128235 0l277.984578 277.984578-38.182318 38.2364zM473.7636 577.061371h-227.146932a27.582127 27.582127 0 0 1-18.928911-8.11239L0 341.261223l38.398648-37.857822 219.575367 219.575367h216.330411zM263.382275 973.486849h-54.082602v-190.370762l-9.194043-9.194042h-54.082603l-9.194042 9.194042V973.486849h-54.082603v-201.187282a29.204605 29.204605 0 0 1 7.571565-19.469737l25.418823-24.877997a25.418823 25.418823 0 0 1 18.928911-8.112391H210.922151a26.500475 26.500475 0 0 1 19.469737 8.112391l25.418823 24.877997a29.204605 29.204605 0 0 1 7.571564 19.469737z" fill="#0F3567" p-id="2758"></path><path d="M103.838597 833.412908h126.553291v54.082603H103.838597zM310.43414 721.46192h54.082602v252.565755h-54.082602z" fill="#0F3567" p-id="2759"></path></svg>