<?xml version="1.0" standalone="no"?><!DOCTYPE svg PUBLIC "-//W3C//DTD SVG 1.1//EN" "http://www.w3.org/Graphics/SVG/1.1/DTD/svg11.dtd"><svg t="1762678824798" class="icon" viewBox="0 0 1024 1024" version="1.1" xmlns="http://www.w3.org/2000/svg" p-id="10475" xmlns:xlink="http://www.w3.org/1999/xlink" width="200" height="200"><path d="M256 153.6h512v716.8H256z" fill="#A0DBF2" p-id="10476"></path><path d="M601.2928 587.52a25.6 25.6 0 0 1-12.3904-3.1744l-66.56-36.864-66.56 36.864a25.6 25.6 0 0 1-37.632-26.5216l13.0048-79.872-54.9888-56.32a25.6 25.6 0 0 1 14.4384-43.1616l74.9568-11.4688 33.792-71.68a26.6752 26.6752 0 0 1 46.08 0l33.7408 71.68 74.9568 11.4688a25.6 25.6 0 0 1 14.4384 43.1616l-54.9888 56.32 13.056 79.872a25.6 25.6 0 0 1-10.5472 25.0368 25.6 25.6 0 0 1-14.7968 4.6592z" fill="#003B73" opacity=".2" p-id="10477"></path><path d="M281.6 870.1952h-51.2v-665.6a76.8 76.8 0 0 1 76.8-76.8h486.4v51.2H307.2a25.6 25.6 0 0 0-25.6 25.6v665.6z" fill="#003B73" opacity=".2" p-id="10478"></path><path d="M496.64 266.1888l39.5776 84.2752 88.4224 13.5168-64 65.5872 15.36 92.6208-79.104-43.7248-79.104 43.7248 15.36-92.6208-64-65.5872 88.4224-13.5168z" fill="#E6F9FF" p-id="10479"></path><path d="M281.5488 921.6a76.8 76.8 0 0 1-76.8-76.8v-665.6a76.8 76.8 0 0 1 76.8-76.8h460.8a76.8 76.8 0 0 1 76.8 76.8v665.6a76.8 76.8 0 0 1-76.8 76.8z m-25.6-742.4v665.6a25.6 25.6 0 0 0 25.6 25.6h460.8a25.6 25.6 0 0 0 25.6-25.6v-665.6a25.6 25.6 0 0 0-25.6-25.6h-460.8a25.6 25.6 0 0 0-25.6 25.6z m132.096 604.8768a25.6 25.6 0 0 1-25.6-25.6 25.6 25.6 0 0 1 25.6-25.6h256a25.6 25.6 0 0 1 25.6 25.6 25.6 25.6 0 0 1-25.6 25.6z m190.6688-222.7712l-66.56-36.8128-66.56 36.8128a25.6 25.6 0 0 1-27.0848-1.4336 25.6 25.6 0 0 1-10.496-25.088l13.0048-79.872-54.9376-56.32a25.6 25.6 0 0 1-5.9392-26.0096 25.6 25.6 0 0 1 20.48-17.2032l74.9568-11.4688 33.7408-71.68a26.6752 26.6752 0 0 1 46.08 0l33.792 71.68 74.9056 11.4688a25.6 25.6 0 0 1 20.48 17.2032 25.6 25.6 0 0 1-5.9392 26.0096l-54.9888 56.32 13.0048 79.872a25.856 25.856 0 0 1-10.496 25.088 25.856 25.856 0 0 1-14.7968 4.6592 25.088 25.088 0 0 1-12.6976-3.4816z m-54.3744-88.5248l33.024 18.2784-6.6048-40.6016a25.6 25.6 0 0 1 6.9632-21.9648l29.2352-29.952-39.2704-5.9392a25.6 25.6 0 0 1-19.2-14.4384l-16.4352-34.8672-16.384 34.8672a25.6 25.6 0 0 1-19.2512 14.4384l-39.2192 5.9392 29.2352 29.952a25.6 25.6 0 0 1 6.912 21.9648l-6.6048 40.6016 33.024-18.2784a25.9072 25.9072 0 0 1 12.3392-3.1744 25.9072 25.9072 0 0 1 12.1856 3.1744z" fill="#003B73" p-id="10480"></path></svg>