<?xml version="1.0" standalone="no"?><!DOCTYPE svg PUBLIC "-//W3C//DTD SVG 1.1//EN" "http://www.w3.org/Graphics/SVG/1.1/DTD/svg11.dtd"><svg t="1762678472723" class="icon" viewBox="0 0 1024 1024" version="1.1" xmlns="http://www.w3.org/2000/svg" p-id="2150" xmlns:xlink="http://www.w3.org/1999/xlink" width="200" height="200"><path d="M739.555556 938.666667H284.444444c-108.088889 0-199.111111-91.022222-199.111111-199.111111V284.444444c0-108.088889 91.022222-199.111111 199.111111-199.111111h455.111112c108.088889 0 199.111111 91.022222 199.111111 199.111111v455.111112c0 108.088889-91.022222 199.111111-199.111111 199.111111z m-455.111112-796.444445C204.8 142.222222 142.222222 204.8 142.222222 284.444444v455.111112c0 79.644444 62.577778 142.222222 142.222222 142.222222h455.111112c79.644444 0 142.222222-62.577778 142.222222-142.222222V284.444444c0-79.644444-62.577778-142.222222-142.222222-142.222222H284.444444z" p-id="2151"></path><path d="M449.422222 608.711111c0 22.755556-5.688889 51.2-28.444444 73.955556-17.066667 11.377778-34.133333 22.755556-62.577778 22.755555v34.133334h-39.822222v-34.133334c-28.444444 0-45.511111-11.377778-62.577778-28.444444-17.066667-17.066667-28.444444-39.822222-28.444444-68.266667v-22.755555h56.888888v17.066666c0 17.066667 5.688889 28.444444 17.066667 34.133334 5.688889 5.688889 17.066667 11.377778 28.444445 11.377777h22.755555c11.377778 0 22.755556-5.688889 28.444445-11.377777 11.377778 0 17.066667-11.377778 17.066666-22.755556s-5.688889-17.066667-17.066666-28.444444c-5.688889-5.688889-17.066667-11.377778-28.444445-17.066667-11.377778-5.688889-17.066667-11.377778-22.755555-11.377778-34.133333-11.377778-56.888889-22.755556-73.955556-39.822222-11.377778-11.377778-22.755556-28.444444-22.755556-51.2 0-28.444444 11.377778-51.2 28.444445-68.266667 17.066667-11.377778 34.133333-22.755556 56.888889-22.755555V341.333333h39.822222v34.133334c28.444444 5.688889 45.511111 11.377778 62.577778 28.444444 17.066667 22.755556 22.755556 39.822222 22.755555 68.266667v5.688889h-56.888889v-5.688889c0-11.377778 0-22.755556-11.377777-28.444445-5.688889-11.377778-11.377778-17.066667-22.755556-17.066666h-22.755555c-11.377778 0-17.066667 5.688889-22.755556 11.377777-11.377778 5.688889-17.066667 11.377778-17.066667 22.755556s5.688889 17.066667 11.377778 22.755556c0 5.688889 11.377778 5.688889 28.444445 17.066666 5.688889 0 17.066667 5.688889 28.444444 11.377778h5.688889c34.133333 17.066667 45.511111 22.755556 62.577778 39.822222 17.066667 17.066667 22.755556 34.133333 22.755555 56.888889zM768 512H568.888889c-17.066667 0-28.444444-11.377778-28.444445-28.444444s11.377778-28.444444 28.444445-28.444445h199.111111c17.066667 0 28.444444 11.377778 28.444444 28.444445s-11.377778 28.444444-28.444444 28.444444zM694.044444 631.466667H568.888889c-17.066667 0-28.444444-11.377778-28.444445-28.444445s11.377778-28.444444 28.444445-28.444444h125.155555c17.066667 0 28.444444 11.377778 28.444445 28.444444s-11.377778 28.444444-28.444445 28.444445z" p-id="2152"></path></svg>