<?xml version="1.0" standalone="no"?><!DOCTYPE svg PUBLIC "-//W3C//DTD SVG 1.1//EN" "http://www.w3.org/Graphics/SVG/1.1/DTD/svg11.dtd"><svg t="1762678844176" class="icon" viewBox="0 0 1024 1024" version="1.1" xmlns="http://www.w3.org/2000/svg" p-id="10931" xmlns:xlink="http://www.w3.org/1999/xlink" width="200" height="200"><path d="M102.4 256m76.8 0l665.6 0q76.8 0 76.8 76.8l0 460.8q0 76.8-76.8 76.8l-665.6 0q-76.8 0-76.8-76.8l0-460.8q0-76.8 76.8-76.8Z" fill="#A0DBF2" p-id="10932"></path><path d="M896 844.8h-25.2928a25.856 25.856 0 0 0 25.2928-25.6v25.6z m-693.504 0h-70.2464a76.288 76.288 0 0 1-4.4032-25.6v-460.8a76.8 76.8 0 0 1 76.8-76.8h665.6a74.7008 74.7008 0 0 1 25.6 4.4032v72.192a25.6 25.6 0 0 0-25.6-25.6h-665.6a25.6 25.6 0 0 0-25.6 25.6v460.8a25.6 25.6 0 0 0 23.3472 25.6z" fill="#003B73" opacity=".2" p-id="10933"></path><path d="M179.2 486.4h716.8v51.2h-716.8z" fill="#003B73" opacity=".2" p-id="10934"></path><path d="M527.36 675.7888a102.4 102.4 0 0 1-102.4-102.4 101.2736 101.2736 0 0 1 6.4512-35.84h191.6928a102.4 102.4 0 0 1-95.8464 138.24z m54.0672-189.44h-108.0832a101.9904 101.9904 0 0 1 107.9296 0z" fill="#003B73" opacity=".2" p-id="10935"></path><path d="M409.6 204.8h204.8v51.2h-204.8z" fill="#E6F9FF" p-id="10936"></path><path d="M512 563.2m-51.2 0a51.2 51.2 0 1 0 102.4 0 51.2 51.2 0 1 0-102.4 0Z" fill="#E6F9FF" p-id="10937"></path><path d="M179.2 870.4a76.8 76.8 0 0 1-76.8-76.8v-460.8a76.8 76.8 0 0 1 76.8-76.8H358.4v-25.6a76.8 76.8 0 0 1 76.8-76.8h153.6a76.8 76.8 0 0 1 76.8 76.8v25.6h179.2a76.8 76.8 0 0 1 76.8 76.8v460.8a76.8 76.8 0 0 1-76.8 76.8z m-25.6-76.8a25.6 25.6 0 0 0 25.6 25.6h665.6a25.6 25.6 0 0 0 25.6-25.6V512h-269.7728a101.8368 101.8368 0 0 1 13.7728 51.2 102.4 102.4 0 0 1-102.4 102.4 102.4 102.4 0 0 1-102.4-102.4 102.0416 102.0416 0 0 1 13.7216-51.2H153.6z m307.2-230.4a51.2 51.2 0 0 0 51.2 51.2 51.2 51.2 0 0 0 51.2-51.2 51.2 51.2 0 0 0-51.2-51.2 51.2 51.2 0 0 0-51.2 51.2z m409.6-102.4v-128a25.6 25.6 0 0 0-25.6-25.6h-665.6a25.6 25.6 0 0 0-25.6 25.6v128z m-256-204.8v-25.6a25.6 25.6 0 0 0-25.6-25.6h-153.6a25.6 25.6 0 0 0-25.6 25.6v25.6z" fill="#003B73" p-id="10938"></path></svg>