<?xml version="1.0" standalone="no"?><!DOCTYPE svg PUBLIC "-//W3C//DTD SVG 1.1//EN" "http://www.w3.org/Graphics/SVG/1.1/DTD/svg11.dtd"><svg t="1762678812258" class="icon" viewBox="0 0 1024 1024" version="1.1" xmlns="http://www.w3.org/2000/svg" p-id="10017" xmlns:xlink="http://www.w3.org/1999/xlink" width="200" height="200"><path d="M460.8 307.2h307.2v102.4h-307.2z" fill="#EDFFEE" p-id="10018"></path><path d="M153.6 256h318.976l38.8096 181.8112H870.4V819.2h-716.8z" fill="#B4E2B7" p-id="10019"></path><path d="M179.2 818.9952h-51.2v-512a76.8 76.8 0 0 1 76.8-76.8h281.6v51.2H204.8a25.6 25.6 0 0 0-25.6 25.6v512z" fill="#005213" opacity=".2" p-id="10020"></path><path d="M256 665.6m25.6 0l102.4 0q25.6 0 25.6 25.6l0 0q0 25.6-25.6 25.6l-102.4 0q-25.6 0-25.6-25.6l0 0q0-25.6 25.6-25.6Z" fill="#005213" p-id="10021"></path><path d="M844.8 409.6h-25.6v-76.8a76.8 76.8 0 0 0-76.8-76.8h-248.832l-7.9872-31.7952A25.6 25.6 0 0 0 460.8 204.8h-281.6a76.8 76.8 0 0 0-76.8 76.8v512a76.8 76.8 0 0 0 76.8 76.8h665.6a76.8 76.8 0 0 0 76.8-76.8v-307.2a76.8 76.8 0 0 0-76.8-76.8z m-102.4-102.4a25.6 25.6 0 0 1 25.6 25.6v76.8h-236.1344l-25.6-102.4z m128 486.4a25.6 25.6 0 0 1-25.6 25.6h-665.6a25.6 25.6 0 0 1-25.6-25.6v-512a25.6 25.6 0 0 1 25.6-25.6h261.5808l46.3872 185.4464A25.6 25.6 0 0 0 512 460.8h332.8a25.6 25.6 0 0 1 25.6 25.6z" fill="#005213" p-id="10022"></path></svg>