<?xml version="1.0" standalone="no"?><!DOCTYPE svg PUBLIC "-//W3C//DTD SVG 1.1//EN" "http://www.w3.org/Graphics/SVG/1.1/DTD/svg11.dtd"><svg t="1762678858091" class="icon" viewBox="0 0 1024 1024" version="1.1" xmlns="http://www.w3.org/2000/svg" p-id="11086" xmlns:xlink="http://www.w3.org/1999/xlink" width="200" height="200"><path d="M683.8 308.2h0.1-0.1m151 43.1c23.8 0 43.1 19.3 43.1 43.1v43.1c0 23.8-19.3 43.1-43.1 43.1h-46.7c-47.6 0-86.3 38.7-86.3 86.3v275c0 23.8-19.3 43.1-43.1 43.1H365.8c-23.8 0-43.1-19.3-43.1-43.1V567c0-47.6-38.7-86.3-86.3-86.3h-48.5c-23.8 0-43.1-19.3-43.1-43.1v-43.1c0-23.8 19.3-43.1 43.1-43.1h156.4c19.2 74.3 86.8 129.4 167.1 129.4s147.9-55.1 167.1-129.4h156.3m0-43.2H640.7c0 71.5-57.9 129.4-129.4 129.4s-129.4-57.9-129.4-129.4h-194c-47.6 0-86.3 38.6-86.3 86.3v43.1c0 47.6 38.6 86.3 86.3 86.3h48.5c23.8 0 43.1 19.3 43.1 43.1v275c0 47.6 38.6 86.3 86.3 86.3h292.9c47.6 0 86.3-38.6 86.3-86.3V567c0-23.8 19.3-43.1 43.1-43.1h46.7c47.6 0 86.3-38.6 86.3-86.3v-43.1c0-47.7-38.7-86.3-86.3-86.3z" fill="#436DAA" p-id="11087"></path><path d="M511.3 335.4c-11.9 0-21.6-9.6-21.6-21.6V268c-37.2-9.6-64.7-43.4-64.7-83.5 0-47.6 38.7-86.3 86.3-86.3s86.3 38.7 86.3 86.3c0 11.9-9.7 21.6-21.6 21.6s-21.6-9.6-21.6-21.6c0-23.8-19.3-43.1-43.1-43.1s-43.1 19.4-43.1 43.1 19.3 43.1 43.1 43.1c11.9 0 21.6 9.6 21.6 21.6v64.7c0 11.9-9.7 21.5-21.6 21.5z" fill="#FFBC00" p-id="11088"></path><path d="M597.6 335.4H425.1c-11.9 0-21.6-9.6-21.6-21.6 0-11.9 9.7-21.6 21.6-21.6h172.5c11.9 0 21.6 9.6 21.6 21.6 0 12-9.7 21.6-21.6 21.6z" fill="#FFBC00" p-id="11089"></path></svg>