<?xml version="1.0" standalone="no"?><!DOCTYPE svg PUBLIC "-//W3C//DTD SVG 1.1//EN" "http://www.w3.org/Graphics/SVG/1.1/DTD/svg11.dtd"><svg t="1762678795753" class="icon" viewBox="0 0 1024 1024" version="1.1" xmlns="http://www.w3.org/2000/svg" p-id="9401" xmlns:xlink="http://www.w3.org/1999/xlink" width="200" height="200"><path d="M511.6416 256C262.4 256 98.4576 462.08 56.32 521.6768a27.3408 27.3408 0 0 0 0 31.8464C98.4576 613.12 262.4 819.2 511.6416 819.2c274.8928 0 421.1712-207.2576 457.1136-266.24a27.392 27.392 0 0 0-1.024-30.1568C926.976 464.9472 762.4704 256 511.6416 256z m313.0368 381.6448a486.912 486.912 0 0 1-129.536 86.528 444.2624 444.2624 0 0 1-183.4496 38.7072 405.6064 405.6064 0 0 1-169.0112-37.7344 545.28 545.28 0 0 1-131.584-86.3232 700.2112 700.2112 0 0 1-93.2352-99.1232 3.328 3.328 0 0 1 0-4.1984c19.3536-25.1904 50.944-62.4128 93.184-99.1232A547.4816 547.4816 0 0 1 342.6816 350.208a403.6608 403.6608 0 0 1 168.96-37.8368c57.1392 0 113.92 12.6464 169.0112 37.7344 45.2608 20.6336 89.6 49.664 131.584 86.272a696.32 696.32 0 0 1 94.976 101.376 3.4816 3.4816 0 0 1 0.1024 4.0448 558.848 558.848 0 0 1-82.6368 95.8976z" p-id="9402"></path><path d="M512 358.4a179.2 179.2 0 0 0 0 358.4 179.2 179.2 0 0 0 0-358.4z m25.6 204.8c-28.2112 0-51.2-22.9888-51.2-51.2 0-28.2112 22.9888-51.2 51.2-51.2 28.2112 0 51.2 22.9888 51.2 51.2 0 28.2112-22.9888 51.2-51.2 51.2z" p-id="9403"></path></svg>