<?xml version="1.0" standalone="no"?><!DOCTYPE svg PUBLIC "-//W3C//DTD SVG 1.1//EN" "http://www.w3.org/Graphics/SVG/1.1/DTD/svg11.dtd"><svg t="1762678817714" class="icon" viewBox="0 0 1024 1024" version="1.1" xmlns="http://www.w3.org/2000/svg" p-id="10170" xmlns:xlink="http://www.w3.org/1999/xlink" width="200" height="200"><path d="M204.8 204.8h614.4v614.4H204.8z" fill="#FFDCE4" p-id="10171"></path><path d="M665.6 691.2v-358.4a25.6 25.6 0 0 1 51.2 0v358.4a25.6 25.6 0 0 1-51.2 0z m-153.6 0v-256a25.6 25.6 0 1 1 51.2 0v256a25.6 25.6 0 0 1-51.2 0z m-153.6 0v-153.6a25.6 25.6 0 1 1 51.2 0v153.6a25.6 25.6 0 0 1-51.2 0z" fill="#7A001C" opacity=".2" p-id="10172"></path><path d="M230.4 819.2h-51.2V256A76.8 76.8 0 0 1 256 179.2h563.2a77.2608 77.2608 0 0 1 25.6 4.4032v70.4a25.9072 25.9072 0 0 0-25.6-23.808H256a25.6 25.6 0 0 0-25.6 25.6v563.2z" fill="#7A001C" opacity=".2" p-id="10173"></path><path d="M230.4 870.3488a76.8 76.8 0 0 1-76.8-76.8v-563.2a76.8 76.8 0 0 1 76.8-76.8h563.2a76.8 76.8 0 0 1 76.8 76.8v563.2a76.8 76.8 0 0 1-76.8 76.8zM204.8 230.3488v563.2a25.6 25.6 0 0 0 25.6 25.6h563.2a25.6 25.6 0 0 0 25.6-25.6v-563.2a25.6 25.6 0 0 0-25.6-25.6h-563.2a25.6 25.6 0 0 0-25.6 25.6z m435.2 460.8v-358.4a25.6 25.6 0 0 1 25.6-25.6 25.6 25.6 0 0 1 25.6 25.6v358.4a25.6 25.6 0 0 1-25.6 25.6 25.6 25.6 0 0 1-25.6-25.6z m-153.6 0v-256a25.6 25.6 0 0 1 25.6-25.6 25.6 25.6 0 0 1 25.6 25.6v256a25.6 25.6 0 0 1-25.6 25.6 25.6 25.6 0 0 1-25.6-25.6z m-153.6 0v-153.6a25.6 25.6 0 0 1 25.6-25.6 25.6 25.6 0 0 1 25.6 25.6v153.6a25.6 25.6 0 0 1-25.6 25.6 25.6 25.6 0 0 1-25.6-25.6z" fill="#7A001C" p-id="10174"></path></svg>