<?xml version="1.0" standalone="no"?><!DOCTYPE svg PUBLIC "-//W3C//DTD SVG 1.1//EN" "http://www.w3.org/Graphics/SVG/1.1/DTD/svg11.dtd"><svg t="1762678831430" class="icon" viewBox="0 0 1024 1024" version="1.1" xmlns="http://www.w3.org/2000/svg" p-id="10628" xmlns:xlink="http://www.w3.org/1999/xlink" width="200" height="200"><path d="M235.989333 235.989333c0-33.877333 27.477333-61.312 61.354667-61.312H726.613333c33.877333 0 61.354667 27.434667 61.354667 61.312v196.010667a30.677333 30.677333 0 0 1-61.354667 0V235.989333H297.386667V788.053333h91.989333a30.677333 30.677333 0 0 1 0 61.312H297.344A61.354667 61.354667 0 0 1 235.946667 788.053333V235.946667z" fill="#2B2F36" p-id="10629"></path><path d="M390.784 315.648a23.168 23.168 0 0 1 32.597333 2.986667l53.333334 64 53.333333-64a23.168 23.168 0 1 1 35.541333 29.653333l-39.466666 47.36h35.925333a23.168 23.168 0 1 1 0 46.336h-62.165333v38.997333h62.165333a23.168 23.168 0 1 1 0 46.293334h-62.165333v62.208a23.168 23.168 0 1 1-46.336 0v-62.208H391.381333a23.168 23.168 0 0 1 0-46.293334h62.165334v-38.997333H391.381333a23.168 23.168 0 0 1 0-46.336h35.882667l-39.466667-47.36a23.168 23.168 0 0 1 2.986667-32.64z" fill="#2B2F36" p-id="10630"></path><path d="M675.84 557.44a32 32 0 0 1 32 32v20.650667c6.784 2.048 13.269333 4.693333 19.456 7.893333l19.157333-19.157333a32 32 0 1 1 45.226667 45.226666l-18.346667 18.346667c4.138667 7.253333 7.424 14.933333 9.813334 23.04h20.650666a32 32 0 0 1 0 64h-20.608a111.36 111.36 0 0 1-8.832 21.333333l22.016 22.016a32 32 0 1 1-45.226666 45.226667l-22.058667-22.016a111.445333 111.445333 0 0 1-21.248 8.832v20.608a32 32 0 0 1-64 0v-20.608a111.061333 111.061333 0 0 1-23.04-9.813333l-23.04 23.04a32 32 0 1 1-45.226667-45.269334l23.808-23.850666a111.402667 111.402667 0 0 1-7.893333-19.498667h-20.650667a32 32 0 0 1 0-64h20.650667c2.218667-7.424 5.205333-14.549333 8.832-21.248l-20.053333-20.096a32 32 0 0 1 45.226666-45.226667l20.053334 20.053334c6.741333-3.626667 13.866667-6.613333 21.333333-8.832v-20.650667a32 32 0 0 1 32-32z m0.853333 208a48 48 0 1 0-1.749333 0h1.749333z" fill="#035DFF" p-id="10631"></path></svg>