<?xml version="1.0" standalone="no"?><!DOCTYPE svg PUBLIC "-//W3C//DTD SVG 1.1//EN" "http://www.w3.org/Graphics/SVG/1.1/DTD/svg11.dtd"><svg t="1762678870593" class="icon" viewBox="0 0 1024 1024" version="1.1" xmlns="http://www.w3.org/2000/svg" p-id="11561" xmlns:xlink="http://www.w3.org/1999/xlink" width="200" height="200"><path d="M880.179775 0H143.820225A97.797753 97.797753 0 0 0 46.022472 97.797753v828.404494a97.797753 97.797753 0 0 0 97.797753 97.797753h736.35955a97.797753 97.797753 0 0 0 97.797753-97.797753V97.797753a97.797753 97.797753 0 0 0-97.797753-97.797753z m17.258427 926.202247a17.258427 17.258427 0 0 1-17.258427 17.258427H143.820225a17.258427 17.258427 0 0 1-17.258427-17.258427V126.561798a17.258427 17.258427 0 0 1 17.258427-17.258427h736.35955a17.258427 17.258427 0 0 1 17.258427 17.258427z" fill="#467CFD" p-id="11562"></path><path d="M754.538427 796.418876H268.94382c-60.692135 0-58.160899 72.197753 0 72.197753h485.594607c64.488989 0.057528 55.629663-72.197753 0-72.197753zM266.930337 719.101124h201.923596c61.612584 0 53.155955-72.140225 0-72.140225H266.930337c-57.988315-0.172584-55.572135 72.140225 0 72.140225z" fill="#467CFD" p-id="11563"></path><path d="M322.157303 379.685393a189.842697 189.842697 0 1 0 189.842697-189.842696 189.842697 189.842697 0 0 0-189.842697 189.842696z m249.729439-119.25573a18.236404 18.236404 0 1 1 25.772584 25.772584L537.715056 346.146517h47.057978a18.178876 18.178876 0 1 1 0 36.415281h-54.594158v36.415281h54.594158a18.178876 18.178876 0 1 1 0 36.415281h-54.594158v30.317303a18.178876 18.178876 0 0 1-36.41528 0v-30.43236h-54.53663a18.178876 18.178876 0 1 1 0-36.415281h54.594158v-36.357752h-54.594158a18.178876 18.178876 0 1 1 0-36.415281h47.057978L426.340674 286.202247a18.236404 18.236404 0 0 1 25.772584-25.772584L512 320.373933z" fill="#8BAEF7" p-id="11564"></path></svg>