<?xml version="1.0" standalone="no"?><!DOCTYPE svg PUBLIC "-//W3C//DTD SVG 1.1//EN" "http://www.w3.org/Graphics/SVG/1.1/DTD/svg11.dtd"><svg t="1762678821764" class="icon" viewBox="0 0 1024 1024" version="1.1" xmlns="http://www.w3.org/2000/svg" p-id="10322" xmlns:xlink="http://www.w3.org/1999/xlink" width="200" height="200"><path d="M512 512m-409.6 0a409.6 409.6 0 1 0 819.2 0 409.6 409.6 0 1 0-819.2 0Z" fill="#FFD9C1" p-id="10323"></path><path d="M174.6432 744.2944a409.6 409.6 0 1 1 725.76-362.5984 409.6 409.6 0 0 0-725.6576 362.5984z" fill="#9E3200" opacity=".2" p-id="10324"></path><path d="M693.4016 497.2032l-134.0416-134.0416a51.2 51.2 0 0 0-72.3968 0l-134.0416 134.0416a51.2 51.2 0 0 0 0 72.3968l134.0416 134.0416a51.2 51.2 0 0 0 72.3968 0l134.0416-134.0416a51.2 51.2 0 0 0 0-72.3968z" fill="#9E3200" opacity=".2" p-id="10325"></path><path d="M341.816125 512.018225m36.203867-36.203868l97.822849-97.822849q36.203867-36.203867 72.407734 0l97.82285 97.822849q36.203867 36.203867 0 72.407735l-97.82285 97.822849q-36.203867 36.203867-72.407734 0l-97.822849-97.822849q-36.203867-36.203867 0-72.407735Z" fill="#FFF9F5" p-id="10326"></path><path d="M102.4 512a410.112 410.112 0 0 1 409.6-409.6 410.112 410.112 0 0 1 409.6 409.6 410.112 410.112 0 0 1-409.6 409.6 410.112 410.112 0 0 1-409.6-409.6z m51.2 0a358.8608 358.8608 0 0 0 358.4 358.4 358.7584 358.7584 0 0 0 358.4-358.4 358.8096 358.8096 0 0 0-358.4-358.4 358.912 358.912 0 0 0-358.4 358.4z m322.2528 170.2912l-134.0416-134.0416a51.2 51.2 0 0 1 0-72.3968l134.0416-134.0416a51.2 51.2 0 0 1 72.3968 0l134.0416 134.0416a51.2 51.2 0 0 1 0 72.3968l-134.0416 134.0416a51.2 51.2 0 0 1-36.2496 14.8992 51.2 51.2 0 0 1-36.1984-14.9504zM377.9584 512L512 646.0416 646.0416 512 512 377.9584z" fill="#9E3200" p-id="10327"></path></svg>