<?xml version="1.0" standalone="no"?><!DOCTYPE svg PUBLIC "-//W3C//DTD SVG 1.1//EN" "http://www.w3.org/Graphics/SVG/1.1/DTD/svg11.dtd"><svg t="1762678731443" class="icon" viewBox="0 0 1024 1024" version="1.1" xmlns="http://www.w3.org/2000/svg" p-id="5538" xmlns:xlink="http://www.w3.org/1999/xlink" width="200" height="200"><path d="M784 128H240C152 128 80 200 80 288v448c0 88 72 160 160 160h544c88 0 160-72 160-160V288c0-88-72-160-160-160z m96 480H592c-52.8 0-96-43.2-96-96s43.2-96 96-96h288v192zM592 352c-88 0-160 72-160 160s72 160 160 160h288v64c0 52.8-43.2 96-96 96H240c-52.8 0-96-43.2-96-96V288c0-52.8 43.2-96 96-96h544c52.8 0 96 43.2 96 96v64H592z" fill="#4A576A" p-id="5539"></path><path d="M592 512m-32 0a32 32 0 1 0 64 0 32 32 0 1 0-64 0Z" fill="#4A576A" p-id="5540"></path></svg>